<svg width="379.000000" height="319.000000" viewBox="0 0 379 319" fill="none" xmlns="http://www.w3.org/2000/svg" xmlns:xlink="http://www.w3.org/1999/xlink">
	<desc>
			Created with Pixso.
	</desc>
	<defs>
		<linearGradient x1="153.894745" y1="30.921036" x2="318.394714" y2="256.644714" id="paint_linear_37_161_0" gradientUnits="userSpaceOnUse">
			<stop stop-color="#ED7B50"/>
			<stop offset="0.541667" stop-color="#488AEA"/>
			<stop offset="1.000000" stop-color="#2C2C2C"/>
		</linearGradient>
		<linearGradient x1="46.403488" y1="114.219284" x2="180.570145" y2="298.320129" id="paint_linear_37_196_0" gradientUnits="userSpaceOnUse">
			<stop stop-color="#ED7B50"/>
			<stop offset="0.541667" stop-color="#488AEA"/>
			<stop offset="1.000000" stop-color="#2C2C2C"/>
		</linearGradient>
	</defs>
	<path id="Subtract" d="M238 0C160.128 0 97 63.1278 97 141C97 218.872 160.128 282 238 282C315.872 282 379 218.872 379 141C379 63.1278 315.872 0 238 0ZM238 47.0001C186.085 47.0001 144 89.0853 144 141C144 192.915 186.085 235 238 235C289.915 235 332 192.915 332 141C332 89.0853 289.915 47.0001 238 47.0001Z" clip-rule="evenodd" fill="url(#paint_linear_37_161_0)" fill-opacity="0.400000" fill-rule="evenodd"/>
	<path id="Subtract" d="M211.321 141.149L177.851 107.679C191.187 116.399 202.602 127.813 211.321 141.149ZM174.065 105.307L213.693 144.935C217.647 151.527 220.959 158.549 223.543 165.913L153.087 95.457C160.451 98.0409 167.473 101.353 174.065 105.307ZM150.945 94.7291L224.271 168.055C225.703 172.41 226.881 176.88 227.789 181.447L137.553 91.2106C142.12 92.1188 146.59 93.2974 150.945 94.7291ZM135.805 90.8772L228.123 183.195C228.884 187.363 229.421 191.609 229.721 195.921L123.079 89.2794C127.391 89.5786 131.637 90.1156 135.805 90.8772ZM121.57 89.1846L229.815 197.43C229.938 199.604 230 201.795 230 204C230 205.557 229.969 207.108 229.908 208.65L110.35 89.0923C111.892 89.031 113.443 89 115 89C117.205 89 119.396 89.062 121.57 89.1846ZM108.997 89.1539L229.846 210.003C229.689 213.053 229.414 216.071 229.024 219.054L99.9459 89.9764C102.929 89.5865 105.947 89.3108 108.997 89.1539ZM98.7013 90.1461L228.854 220.299C228.404 223.473 227.823 226.606 227.119 229.692L89.3079 91.8807C92.3936 91.1765 95.5266 90.5966 98.7013 90.1461ZM88.1615 92.1486L226.851 230.839C226.148 233.779 225.333 236.676 224.408 239.524L79.4764 94.5916C82.3243 93.6675 85.2209 92.8516 88.1615 92.1486ZM78.413 94.9424L224.058 240.587C223.241 243.021 222.346 245.419 221.374 247.778L71.2225 97.6257C73.5809 96.6542 75.9788 95.7587 78.413 94.9424ZM70.2248 98.0424L220.958 248.775C219.867 251.353 218.685 253.883 217.415 256.361L62.639 101.585C65.1168 100.315 67.6468 99.1331 70.2248 98.0424ZM0.0806274 208.347C0.0270386 206.905 0 205.456 0 204C0 202.163 0.0430908 200.337 0.128235 198.521L120.479 318.872C118.664 318.957 116.837 319 115 319C113.544 319 112.095 318.973 110.653 318.919L0.0806274 208.347ZM1.43988 222.249C0.790344 218.175 0.354797 214.03 0.14502 209.826L109.174 318.855C104.97 318.645 100.825 318.21 96.7513 317.56L1.43988 222.249ZM5.31793 238.669C3.80847 233.889 2.60284 228.974 1.72369 223.947L95.0533 317.276C90.0261 316.397 85.111 315.192 80.331 313.682L5.31793 238.669ZM15.085 260.978C11.4395 254.599 8.38721 247.838 6.00342 240.769L78.2313 312.997C71.1622 310.613 64.4006 307.561 58.0217 303.915L15.085 260.978ZM54.5281 301.836C39.3689 292.446 26.5542 279.631 17.1644 264.472L54.5281 301.836ZM131.915 317.765C128.595 318.254 125.229 318.602 121.823 318.801L0.199036 197.177C0.398315 193.771 0.745789 190.405 1.23517 187.085L131.915 317.765ZM142.406 315.714C139.364 316.458 136.273 317.081 133.141 317.577L1.42279 185.859C1.91913 182.727 2.54193 179.636 3.28583 176.594L142.406 315.714ZM151.175 313.195C148.666 314.026 146.119 314.772 143.538 315.431L3.56854 175.462C4.22778 172.88 4.97443 170.334 5.80505 167.825L151.175 313.195ZM160.269 309.747C157.64 310.874 154.959 311.906 152.233 312.839L6.16113 166.767C7.09357 164.041 8.12561 161.36 9.25281 158.731L160.269 309.747ZM168.754 305.69C166.306 306.987 163.805 308.198 161.255 309.319L9.68097 157.745C10.8023 155.195 12.0134 152.694 13.3104 150.246L168.754 305.69ZM175.913 301.561C173.876 302.836 171.796 304.048 169.675 305.196L13.8036 149.325C14.9517 147.204 16.1644 145.124 17.4393 143.087L175.913 301.561ZM183.372 296.477C181.23 298.063 179.032 299.576 176.78 301.013L17.9869 142.22C19.4239 139.968 20.9372 137.77 22.5231 135.628L183.372 296.477ZM190.331 290.894C188.34 292.622 186.289 294.282 184.181 295.872L23.1279 134.819C24.7176 132.711 26.3781 130.66 28.1058 128.669L190.331 290.894ZM196.18 285.455C194.531 287.098 192.832 288.692 191.086 290.234L28.7659 127.914C30.3077 126.168 31.9017 124.469 33.5455 122.82L196.18 285.455ZM202.221 278.953C200.508 280.944 198.728 282.876 196.885 284.746L34.2545 122.115C36.1236 120.272 38.0555 118.492 40.0468 116.779L202.221 278.953ZM207.776 271.966C206.212 274.098 204.576 276.174 202.872 278.19L40.8102 116.128C42.8265 114.424 44.9022 112.788 47.0339 111.224L207.776 271.966ZM212.349 265.251C211.083 267.259 209.756 269.225 208.371 271.147L47.8527 110.629C49.7746 109.244 51.7409 107.917 53.7492 106.651L212.349 265.251ZM216.933 257.293C215.668 259.707 214.32 262.071 212.892 264.38L54.6199 106.108C56.9293 104.68 59.2932 103.332 61.7074 102.067L216.933 257.293Z" clip-rule="evenodd" fill="url(#paint_linear_37_196_0)" fill-opacity="0.400000" fill-rule="evenodd"/>
</svg>
