<svg width="40.000000" height="40.000000" viewBox="0 0 40 40" fill="none" xmlns="http://www.w3.org/2000/svg" xmlns:xlink="http://www.w3.org/1999/xlink">
	<desc>
			Created with Pixso.
	</desc>
	<defs/>
	<circle id="Ellipse" cx="20.000000" cy="20.000000" r="20.000000" fill="#E5E5E5" fill-opacity="1.000000"/>
	<path id="Vector" d="M9.35 20.37L13.94 22.08L15.74 27.85C15.81 28.24 16.28 28.32 16.59 28.08L19.17 25.98C19.4 25.75 19.79 25.75 20.1 25.98L24.7 29.33C25.01 29.57 25.48 29.41 25.56 29.02L28.99 12.65C29.06 12.26 28.67 11.87 28.28 12.03L9.35 19.36C8.88 19.51 8.88 20.21 9.35 20.37ZM15.5 21.23L24.54 15.69C24.7 15.62 24.85 15.85 24.7 15.93L17.29 22.86C17.06 23.1 16.83 23.41 16.83 23.8L16.59 25.67C16.59 25.9 16.2 25.98 16.13 25.67L15.19 22.24C14.96 21.85 15.11 21.38 15.5 21.23Z" fill="#000000" fill-opacity="1.000000" fill-rule="nonzero"/>
	<circle id="Ellipse 3" cx="20.000000" cy="20.000000" r="19.500000" stroke="#488AEA" stroke-opacity="1.000000" stroke-width="1.000000"/>
</svg>
