<svg width="40.000000" height="40.000000" viewBox="0 0 40 40" fill="none" xmlns="http://www.w3.org/2000/svg" xmlns:xlink="http://www.w3.org/1999/xlink">
	<desc>
			Created with Pixso.
	</desc>
	<defs/>
	<circle id="Ellipse" cx="20.000000" cy="20.000000" r="20.000000" fill="#E5E5E5" fill-opacity="1.000000"/>
	<path id="Vector" d="M29.8 25.11C29.8 25.03 29.72 25.03 29.72 24.94C29.39 24.28 28.64 23.45 27.64 22.54C27.14 22.12 26.9 21.79 26.73 21.62C26.48 21.29 26.48 21.04 26.56 20.71C26.65 20.46 26.98 20.05 27.56 19.3C27.89 18.88 28.06 18.63 28.31 18.39C29.55 16.73 30.13 15.65 29.97 15.15L29.88 15.06C29.8 14.98 29.72 14.9 29.55 14.9C29.39 14.82 29.14 14.82 28.89 14.9L25.73 14.9C25.65 14.9 25.65 14.9 25.48 14.9C25.4 14.9 25.32 14.9 25.32 14.9L25.23 14.9L25.15 14.9L25.07 14.98C24.99 15.06 24.99 15.06 24.99 15.15C24.65 16.06 24.24 16.81 23.82 17.64C23.57 18.05 23.33 18.47 23.08 18.8C22.83 19.13 22.66 19.38 22.5 19.55C22.33 19.71 22.16 19.8 22.08 19.96C22 20.05 21.83 20.13 21.83 20.05C21.75 20.05 21.66 20.05 21.66 19.96C21.58 19.88 21.5 19.8 21.42 19.71C21.33 19.63 21.33 19.46 21.25 19.3C21.25 19.13 21.25 18.97 21.25 18.88C21.25 18.8 21.25 18.55 21.25 18.39C21.25 18.14 21.25 17.97 21.25 17.89C21.25 17.64 21.25 17.31 21.25 16.97C21.25 16.64 21.25 16.39 21.25 16.23C21.25 16.06 21.25 15.81 21.25 15.65C21.25 15.4 21.25 15.23 21.25 15.15C21.25 15.06 21.17 14.9 21.17 14.82C21.08 14.73 21 14.65 20.92 14.57C20.83 14.48 20.67 14.48 20.59 14.4C20.17 14.32 19.67 14.23 19.09 14.23C17.76 14.23 16.85 14.32 16.52 14.48C16.35 14.57 16.19 14.65 16.1 14.82C15.94 14.98 15.94 15.06 16.02 15.06C16.43 15.15 16.77 15.31 16.93 15.56L17.02 15.73C17.1 15.81 17.1 15.98 17.18 16.23C17.26 16.48 17.26 16.73 17.26 17.06C17.26 17.56 17.26 18.05 17.26 18.39C17.26 18.8 17.18 19.05 17.18 19.3C17.18 19.55 17.1 19.71 17.02 19.8C16.93 19.96 16.93 20.05 16.85 20.05C16.85 20.05 16.85 20.13 16.77 20.13C16.68 20.13 16.6 20.21 16.43 20.21C16.35 20.21 16.19 20.13 16.1 20.05C15.94 19.96 15.77 19.8 15.69 19.63C15.52 19.46 15.36 19.22 15.19 18.88C15.02 18.55 14.77 18.22 14.61 17.72L14.44 17.39C14.36 17.22 14.19 16.89 14.03 16.48C13.86 16.06 13.69 15.73 13.53 15.31C13.45 15.15 13.36 15.06 13.28 14.98L13.2 14.98C13.2 14.98 13.11 14.9 13.03 14.9C12.95 14.9 12.86 14.82 12.78 14.82L9.79 14.82C9.46 14.82 9.29 14.9 9.21 14.98L9.13 15.06C9.13 15.06 9.13 15.15 9.13 15.23C9.13 15.31 9.13 15.4 9.21 15.56C9.63 16.56 10.12 17.56 10.62 18.55C11.12 19.46 11.62 20.29 11.95 20.88C12.37 21.46 12.7 22.04 13.11 22.54C13.53 23.03 13.78 23.37 13.86 23.53C14.03 23.7 14.11 23.78 14.19 23.87L14.44 24.11C14.61 24.28 14.86 24.53 15.19 24.78C15.52 25.03 15.94 25.28 16.35 25.53C16.77 25.77 17.26 25.94 17.76 26.11C18.34 26.27 18.84 26.36 19.34 26.27L20.59 26.27C20.83 26.27 21 26.19 21.17 26.02L21.25 25.94C21.25 25.86 21.33 25.86 21.33 25.77C21.33 25.69 21.33 25.61 21.33 25.44C21.33 25.11 21.33 24.86 21.42 24.61C21.5 24.36 21.5 24.2 21.58 24.03C21.66 23.87 21.75 23.78 21.83 23.7C21.91 23.62 22 23.53 22 23.53L22.08 23.53C22.25 23.45 22.5 23.53 22.66 23.7C22.91 23.87 23.16 24.11 23.33 24.36C23.49 24.61 23.74 24.86 24.07 25.19C24.4 25.53 24.65 25.77 24.82 25.86L25.07 26.02C25.23 26.11 25.4 26.19 25.65 26.27C25.9 26.36 26.07 26.36 26.23 26.36L29.05 26.27C29.3 26.27 29.55 26.19 29.72 26.11C29.88 26.02 29.97 25.94 29.97 25.77C29.97 25.69 29.97 25.53 29.97 25.44C29.8 25.28 29.8 25.19 29.8 25.11Z" fill="#000000" fill-opacity="1.000000" fill-rule="nonzero"/>
	<circle id="Ellipse 2" cx="20.000000" cy="20.000000" r="19.500000" stroke="#488AEA" stroke-opacity="1.000000" stroke-width="1.000000"/>
</svg>
