<svg width="40.000000" height="40.000000" viewBox="0 0 40 40" fill="none" xmlns="http://www.w3.org/2000/svg" xmlns:xlink="http://www.w3.org/1999/xlink">
	<desc>
			Created with Pixso.
	</desc>
	<defs>
		<linearGradient x1="8.499994" y1="35.499996" x2="35.000000" y2="8.000015" id="paint_linear_23_3_0" gradientUnits="userSpaceOnUse">
			<stop stop-color="#E5E5E5"/>
		</linearGradient>
	</defs>
	<circle id="Ellipse" cx="20.000000" cy="20.000000" r="20.000000" fill="url(#paint_linear_23_3_0)" fill-opacity="1.000000"/>
	<path id="Vector" d="M26.58 12L14.41 12C13.04 12 12 13.04 12 14.41L12 26.58C12 27.95 13.04 29 14.41 29L26.58 29C27.95 29 29 27.95 29 26.58L29 14.41C29 13.04 27.95 12 26.58 12ZM20.5 25.6C23.31 25.6 25.6 23.37 25.6 20.69C25.6 20.23 25.53 19.71 25.4 19.32L26.84 19.32L26.84 26.25C26.84 26.58 26.58 26.9 26.18 26.9L14.81 26.9C14.48 26.9 14.15 26.64 14.15 26.25L14.15 19.25L15.66 19.25C15.53 19.71 15.46 20.17 15.46 20.63C15.4 23.37 17.68 25.6 20.5 25.6ZM20.5 23.63C18.66 23.63 17.23 22.2 17.23 20.43C17.23 18.66 18.66 17.23 20.5 17.23C22.33 17.23 23.76 18.66 23.76 20.43C23.76 22.26 22.33 23.63 20.5 23.63ZM26.77 16.64C26.77 17.03 26.45 17.36 26.05 17.36L24.22 17.36C23.83 17.36 23.5 17.03 23.5 16.64L23.5 14.87C23.5 14.48 23.83 14.15 24.22 14.15L26.05 14.15C26.45 14.15 26.77 14.48 26.77 14.87L26.77 16.64Z" fill="#000000" fill-opacity="1.000000" fill-rule="nonzero"/>
	<circle id="Ellipse 4" cx="20.000000" cy="20.000000" r="19.500000" stroke="#488AEA" stroke-opacity="1.000000" stroke-width="1.000000"/>
</svg>
