<svg width="40.000000" height="40.000000" viewBox="0 0 40 40" fill="none" xmlns="http://www.w3.org/2000/svg" xmlns:xlink="http://www.w3.org/1999/xlink">
	<desc>
			Created with Pixso.
	</desc>
	<defs/>
	<circle id="Ellipse" cx="20.000000" cy="20.000000" r="20.000000" fill="#E5E5E5" fill-opacity="1.000000"/>
	<path id="Vector" d="M30.31 21.06C30.38 20.52 30.45 20.04 30.45 19.5C30.45 14.04 26.02 9.54 20.5 9.54C19.95 9.54 19.47 9.61 18.93 9.68C18.04 9.2 17.09 9 16.13 9C12.72 9 10 11.72 10 15.13C10 16.09 10.2 17.04 10.68 17.93C10.61 18.47 10.54 18.95 10.54 19.5C10.54 24.95 14.97 29.45 20.5 29.45C21.04 29.45 21.52 29.38 22.06 29.31C22.95 29.72 23.9 30 24.86 30C28.27 30 31 27.27 31 23.86C31 22.9 30.72 21.95 30.31 21.06ZM24.65 23.11C24.45 23.52 24.18 23.86 23.77 24.13C23.36 24.4 22.95 24.61 22.4 24.75C21.86 24.88 21.25 24.95 20.56 24.95C19.13 24.95 17.97 24.61 17.15 24C16.68 23.59 16.27 23.11 16.06 22.5C15.79 21.95 16.27 21.27 16.95 21.27L17.15 21.27C17.56 21.27 17.97 21.54 18.11 21.88C18.25 22.22 18.45 22.5 18.72 22.7C19.13 23.04 19.75 23.18 20.5 23.18C21.18 23.18 21.72 23.04 22.13 22.84C22.54 22.63 22.75 22.22 22.75 21.81C22.75 21.61 22.68 21.47 22.61 21.34C22.54 21.2 22.34 21.06 22.2 21C22 20.86 21.79 20.79 21.45 20.72C21.18 20.65 20.84 20.52 20.43 20.45L20.02 20.31C19.54 20.18 19 20.04 18.59 19.9C18.11 19.77 17.7 19.56 17.36 19.36C17.02 19.15 16.75 18.88 16.54 18.47C16.34 18.13 16.27 17.65 16.27 17.11C16.27 16.56 16.4 16.09 16.61 15.68C16.81 15.27 17.15 14.93 17.5 14.72C17.9 14.45 18.31 14.25 18.86 14.18C19.34 14.04 19.88 13.97 20.5 13.97C21.18 13.97 21.72 14.04 22.27 14.18C22.81 14.31 23.22 14.52 23.63 14.86C24.04 15.13 24.31 15.47 24.52 15.95C24.86 16.56 24.38 17.38 23.63 17.38L23.43 17.38C23.02 17.38 22.68 17.18 22.47 16.84C22.34 16.63 22.2 16.43 22 16.22C21.65 15.95 21.11 15.81 20.5 15.81C19.88 15.81 19.4 15.95 19.06 16.15C18.72 16.36 18.59 16.7 18.59 17.04C18.59 17.25 18.65 17.38 18.72 17.52C18.79 17.65 18.93 17.79 19.13 17.86C19.34 17.93 19.54 18.06 19.81 18.13C20.09 18.2 20.43 18.27 20.84 18.4C21.25 18.47 21.59 18.61 22 18.68C22.34 18.75 22.68 18.88 23.02 18.95C23.36 19.09 23.63 19.22 23.9 19.36C24.18 19.5 24.38 19.7 24.59 19.9C24.79 20.11 24.93 20.38 25 20.65C25.13 20.93 25.13 21.34 25.13 21.75C25 22.22 24.86 22.7 24.65 23.11Z" fill="#000000" fill-opacity="1.000000" fill-rule="nonzero"/>
	<circle id="Ellipse 1" cx="20.000000" cy="20.000000" r="19.500000" stroke="#488AEA" stroke-opacity="1.000000" stroke-width="1.000000"/>
</svg>
